<?xml version="1.0" encoding="iso-8859-1"?>
<!-- Generator: Adobe Illustrator 19.0.0, SVG Export Plug-In . SVG Version: 6.00 Build 0)  -->
<svg version="1.1" id="Capa_1" xmlns="http://www.w3.org/2000/svg" xmlns:xlink="http://www.w3.org/1999/xlink" x="0px" y="0px"
	 viewBox="0 0 508 508" style="enable-background:new 0 0 508 508;" xml:space="preserve">
<g>
	<g>
		<rect x="131.15" y="41" width="81.9" height="16.4"/>
	</g>
</g>
<g>
	<g>
		<path d="M172.15,409.7c-18.1,0-32.8,14.7-32.8,32.8s14.7,32.8,32.8,32.8c18.1,0,32.8-14.7,32.8-32.8
			C204.85,424.4,190.15,409.7,172.15,409.7z M172.15,458.8c-9,0-16.4-7.4-16.4-16.4s7.3-16.4,16.4-16.4c9,0,16.4,7.4,16.4,16.4
			C188.55,451.5,181.15,458.8,172.15,458.8z"/>
	</g>
</g>
<g>
	<g>
		<rect x="65.55" y="434.3" width="49.2" height="16.4"/>
	</g>
</g>
<g>
	<g>
		<rect x="229.45" y="434.3" width="49.2" height="16.4"/>
	</g>
</g>
<g>
	<g>
		<path d="M409.75,106.5h-65.5V0H0.05v508h344.1V303.2h65.5c54.2,0,98.3-44.1,98.3-98.3C507.95,150.7,463.95,106.5,409.75,106.5z
			 M327.85,491.6h-0.1H16.45V16.4h311.4v90.1h-24.6V81.9H41.05v311.4h262.2v-90.1h24.6V491.6z M286.85,314.7v62.2H57.45V98.3h229.4
			v8.6c-50.4,4.2-90.1,46.5-90.1,97.9c0,35.4,18.7,67.5,49.2,85.1v65.8L286.85,314.7z M409.75,286.8h-118.1l-29.4,29.4V280l-4.5-2.3
			c-27.6-14.1-44.7-42-44.7-72.9c0-45.2,36.8-81.9,81.9-81.9h114.7c45.2,0,81.9,36.8,81.9,81.9
			C491.65,250,454.95,286.8,409.75,286.8z"/>
	</g>
</g>
<g>
	<g>
		<path d="M270.45,172.1c-18.1,0-32.8,14.7-32.8,32.8c0,18.1,14.7,32.8,32.8,32.8c18.1,0,32.8-14.7,32.8-32.8
			C303.25,186.8,288.55,172.1,270.45,172.1z M270.45,221.2c-9,0-16.4-7.4-16.4-16.4s7.3-16.4,16.4-16.4c9,0,16.4,7.4,16.4,16.4
			C286.85,213.9,279.45,221.2,270.45,221.2z"/>
	</g>
</g>
<g>
	<g>
		<path d="M352.35,172.1c-18.1,0-32.8,14.7-32.8,32.8c0,18.1,14.7,32.8,32.8,32.8c18.1,0,32.8-14.7,32.8-32.8
			C385.15,186.8,370.45,172.1,352.35,172.1z M352.35,221.2c-9,0-16.4-7.4-16.4-16.4s7.3-16.4,16.4-16.4c9,0,16.4,7.4,16.4,16.4
			C368.75,213.9,361.45,221.2,352.35,221.2z"/>
	</g>
</g>
<g>
	<g>
		<path d="M434.35,172.1c-18.1,0-32.8,14.7-32.8,32.8c0,18.1,14.7,32.8,32.8,32.8c18.1,0,32.8-14.7,32.8-32.8
			C467.05,186.8,452.35,172.1,434.35,172.1z M434.35,221.2c-9,0-16.4-7.4-16.4-16.4s7.3-16.4,16.4-16.4c9.1,0,16.4,7.4,16.4,16.4
			C450.65,213.9,443.35,221.2,434.35,221.2z"/>
	</g>
</g>
<g>
</g>
<g>
</g>
<g>
</g>
<g>
</g>
<g>
</g>
<g>
</g>
<g>
</g>
<g>
</g>
<g>
</g>
<g>
</g>
<g>
</g>
<g>
</g>
<g>
</g>
<g>
</g>
<g>
</g>
</svg>
