<svg height="476pt" viewBox="0 -39 476.11669 476" width="476pt" xmlns="http://www.w3.org/2000/svg"><path d="m466.117188 129.417969-38.070313 258.792969h-379.460937l-38.589844-258.792969zm0 0" fill="#00efd1"/><path d="m435.425781 60.21875v69.199219h-394.738281v-119.507813h155.367188v50.308594zm0 0" fill="#00acea"/><path d="m466.117188 119.058594h-21.0625v-58.839844c0-5.523438-4.105469-10.160156-9.628907-10.160156h-229.371093v-40.148438c-.003907-2.636718-1.066407-5.164062-2.941407-7.011718-1.878906-1.851563-4.421875-2.8750005-7.058593-2.8398442h-155.367188c-2.601562-.0195313-5.09375 1.0195312-6.910156 2.8789062-1.816406 1.855469-2.800782 4.375-2.722656 6.972656v109.148438h-21.058594c-2.933594.082031-5.6875 1.414062-7.578125 3.65625-1.890625 2.242187-2.730469 5.1875-2.3125 8.089844l38.589843 258.757812c.734376 4.894531 4.941407 8.507812 9.890626 8.496094h379.460937c4.945313.035156 9.164063-3.578125 9.894531-8.46875l38.070313-258.753906c.421875-2.921876-.425781-5.890626-2.328125-8.152344-1.882813-2.242188-4.640625-3.5625-7.566406-3.625zm-415.0625-99h135v40.160156c.007812 2.636719 1.066406 5.160156 2.945312 7.007812 1.878906 1.847657 4.421875 2.867188 7.054688 2.832032h229v49h-374zm368.355468 358h-362.207031l-35.605469-239h432.9375zm0 0" fill="#083863"/></svg>